<svg xmlns="http://www.w3.org/2000/svg" xmlns:xlink="http://www.w3.org/1999/xlink" width="99" height="87" viewBox="0 0 99 87">
  <defs>
    <clipPath id="clip-path">
      <path id="archive" d="M12.374,87a6.189,6.189,0,0,1-6.185-6.212V24.859H92.811V80.788A6.193,6.193,0,0,1,86.623,87ZM3.092,18.643A3.109,3.109,0,0,1,0,15.537V6.216A6.2,6.2,0,0,1,6.189,0H92.811A6.2,6.2,0,0,1,99,6.216v9.322a3.11,3.11,0,0,1-3.1,3.106Z" transform="translate(0)" fill="none"/>
    </clipPath>
    <clipPath id="clip-path-2">
      <path id="arrow-down" d="M43.358,20.272l2.362,2.362a2.543,2.543,0,0,1,0,3.607L25.044,46.928a2.543,2.543,0,0,1-3.607,0L.75,26.241a2.543,2.543,0,0,1,0-3.607l2.362-2.362a2.557,2.557,0,0,1,3.65.043L18.979,33.137V2.554A2.548,2.548,0,0,1,21.533,0h3.405a2.548,2.548,0,0,1,2.554,2.554V33.137L39.708,20.314A2.538,2.538,0,0,1,43.358,20.272Z" fill="none"/>
    </clipPath>
  </defs>
  <g id="Groupe_963" data-name="Groupe 963" transform="translate(-234 -717)">
    <g id="archive-2" data-name="archive" transform="translate(234 717)">
      <g id="Groupe_317" data-name="Groupe 317" transform="translate(0)">
        <path id="archive-3" data-name="archive" d="M12.374,87a6.189,6.189,0,0,1-6.185-6.212V24.859H92.811V80.788A6.193,6.193,0,0,1,86.623,87ZM3.092,18.643A3.109,3.109,0,0,1,0,15.537V6.216A6.2,6.2,0,0,1,6.189,0H92.811A6.2,6.2,0,0,1,99,6.216v9.322a3.11,3.11,0,0,1-3.1,3.106Z" transform="translate(0)" fill="none"/>
        <g id="Groupe_de_masques_317" data-name="Groupe de masques 317" clip-path="url(#clip-path)">
          <g id="_color" data-name="🎨 color" transform="translate(0 -6.187)">
            <rect id="Color" width="98.999" height="98.999" fill="#fff"/>
          </g>
        </g>
      </g>
    </g>
    <g id="arrow-down-2" data-name="arrow-down" transform="translate(260.265 749.778)">
      <g id="Groupe_27" data-name="Groupe 27" transform="translate(0 0)">
        <path id="arrow-down-3" data-name="arrow-down" d="M43.358,20.272l2.362,2.362a2.543,2.543,0,0,1,0,3.607L25.044,46.928a2.543,2.543,0,0,1-3.607,0L.75,26.241a2.543,2.543,0,0,1,0-3.607l2.362-2.362a2.557,2.557,0,0,1,3.65.043L18.979,33.137V2.554A2.548,2.548,0,0,1,21.533,0h3.405a2.548,2.548,0,0,1,2.554,2.554V33.137L39.708,20.314A2.538,2.538,0,0,1,43.358,20.272Z" transform="translate(0 0)" fill="none"/>
        <g id="Groupe_de_masques_27" data-name="Groupe de masques 27" transform="translate(0 0)" clip-path="url(#clip-path-2)">
          <g id="_color-2" data-name="🎨 color" transform="translate(-3.429 -3.79)">
            <rect id="Color-2" data-name="Color" width="54.568" height="54.568" fill="#01ae00"/>
          </g>
        </g>
      </g>
    </g>
  </g>
</svg>
