<svg id="piggy-bank-2" data-name="piggy-bank" xmlns="http://www.w3.org/2000/svg" xmlns:xlink="http://www.w3.org/1999/xlink" width="102.747" height="91.334" viewBox="0 0 102.747 91.334">
  <defs>
    <clipPath id="clip-path">
      <path id="piggy-bank" d="M71.348,91.334A2.863,2.863,0,0,1,68.5,88.478V79.917H45.664v8.562a2.866,2.866,0,0,1-2.855,2.855H31.392a2.866,2.866,0,0,1-2.855-2.855v-14.4A28.429,28.429,0,0,1,17.12,51.373H9.988a10,10,0,0,1-9.9-11.309,10.223,10.223,0,0,1,10.257-8.669,1.074,1.074,0,0,1,1.071,1.071v3.568a1.074,1.074,0,0,1-1.071,1.071h-.177A4.39,4.39,0,0,0,5.8,40.531a4.284,4.284,0,0,0,4.192,5.136h7.706a28.562,28.562,0,0,1,27.97-22.833H68.5a28.309,28.309,0,0,1,4.1.408,17.007,17.007,0,0,1,13.02-6.119h5.71l-3.371,13.47a28.61,28.61,0,0,1,6.67,9.363h5.263a2.866,2.866,0,0,1,2.855,2.855V65.645A2.866,2.866,0,0,1,99.892,68.5H91.2a28.492,28.492,0,0,1-5.583,5.583v14.4a2.864,2.864,0,0,1-2.855,2.855ZM37.1,17.123a17.123,17.123,0,1,1,34.246,0c0,.054-.015.092-.015.143-.929-.069-1.873-.143-2.836-.143H45.664a34.039,34.039,0,0,0-8.458,1.106C37.191,17.855,37.1,17.5,37.1,17.123Z" transform="translate(0 0)" fill="none"/>
    </clipPath>
  </defs>
  <g id="Groupe_254" data-name="Groupe 254" transform="translate(0 0)">
    <path id="piggy-bank-3" data-name="piggy-bank" d="M71.348,91.334A2.863,2.863,0,0,1,68.5,88.478V79.917H45.664v8.562a2.866,2.866,0,0,1-2.855,2.855H31.392a2.866,2.866,0,0,1-2.855-2.855v-14.4A28.429,28.429,0,0,1,17.12,51.373H9.988a10,10,0,0,1-9.9-11.309,10.223,10.223,0,0,1,10.257-8.669,1.074,1.074,0,0,1,1.071,1.071v3.568a1.074,1.074,0,0,1-1.071,1.071h-.177A4.39,4.39,0,0,0,5.8,40.531a4.284,4.284,0,0,0,4.192,5.136h7.706a28.562,28.562,0,0,1,27.97-22.833H68.5a28.309,28.309,0,0,1,4.1.408,17.007,17.007,0,0,1,13.02-6.119h5.71l-3.371,13.47a28.61,28.61,0,0,1,6.67,9.363h5.263a2.866,2.866,0,0,1,2.855,2.855V65.645A2.866,2.866,0,0,1,99.892,68.5H91.2a28.492,28.492,0,0,1-5.583,5.583v14.4a2.864,2.864,0,0,1-2.855,2.855ZM37.1,17.123a17.123,17.123,0,1,1,34.246,0c0,.054-.015.092-.015.143-.929-.069-1.873-.143-2.836-.143H45.664a34.039,34.039,0,0,0-8.458,1.106C37.191,17.855,37.1,17.5,37.1,17.123Z" transform="translate(0 0)" fill="none"/>
    <g id="Groupe_de_masques_254" data-name="Groupe de masques 254" clip-path="url(#clip-path)">
      <g id="_color" data-name="🎨 color" transform="translate(-0.003 -5.708)">
        <rect id="Color" width="102.749" height="102.749" fill="#fff"/>
      </g>
    </g>
  </g>
</svg>
