<svg id="edit-2" data-name="edit" xmlns="http://www.w3.org/2000/svg" xmlns:xlink="http://www.w3.org/1999/xlink" width="85.888" height="76.329" viewBox="0 0 85.888 76.329">
  <defs>
    <clipPath id="clip-path">
      <path id="edit" d="M7.157,76.329A7.157,7.157,0,0,1,0,69.173V16.687a7.16,7.16,0,0,1,7.157-7.16H49.774a1.789,1.789,0,0,1,1.266,3.057l-5.965,5.965a1.825,1.825,0,0,1-1.266.522H9.543V66.786H57.259V51.606a1.825,1.825,0,0,1,.522-1.266l5.965-5.965A1.792,1.792,0,0,1,66.8,45.642V69.173a7.159,7.159,0,0,1-7.157,7.157ZM23.872,58.8l1.536-13.84L57.974,12.39a1.458,1.458,0,0,1,2.058,0l13.45,13.45a1.458,1.458,0,0,1,0,2.058L40.917,60.464,27.077,62a2.956,2.956,0,0,1-.332.019A2.9,2.9,0,0,1,23.872,58.8ZM76.851,22.484,63.4,9.037a1.458,1.458,0,0,1,0-2.058L68.68,1.7a5.832,5.832,0,0,1,8.232,0l7.276,7.276a5.832,5.832,0,0,1,0,8.232l-5.279,5.276a1.458,1.458,0,0,1-2.058,0Z" fill="none"/>
    </clipPath>
  </defs>
  <g id="Groupe_656" data-name="Groupe 656">
    <path id="edit-3" data-name="edit" d="M7.157,76.329A7.157,7.157,0,0,1,0,69.173V16.687a7.16,7.16,0,0,1,7.157-7.16H49.774a1.789,1.789,0,0,1,1.266,3.057l-5.965,5.965a1.825,1.825,0,0,1-1.266.522H9.543V66.786H57.259V51.606a1.825,1.825,0,0,1,.522-1.266l5.965-5.965A1.792,1.792,0,0,1,66.8,45.642V69.173a7.159,7.159,0,0,1-7.157,7.157ZM23.872,58.8l1.536-13.84L57.974,12.39a1.458,1.458,0,0,1,2.058,0l13.45,13.45a1.458,1.458,0,0,1,0,2.058L40.917,60.464,27.077,62a2.956,2.956,0,0,1-.332.019A2.9,2.9,0,0,1,23.872,58.8ZM76.851,22.484,63.4,9.037a1.458,1.458,0,0,1,0-2.058L68.68,1.7a5.832,5.832,0,0,1,8.232,0l7.276,7.276a5.832,5.832,0,0,1,0,8.232l-5.279,5.276a1.458,1.458,0,0,1-2.058,0Z" fill="none"/>
    <g id="Groupe_de_masques_656" data-name="Groupe de masques 656" clip-path="url(#clip-path)">
      <g id="_color" data-name="🎨 color" transform="translate(0 -4.786)">
        <rect id="Color" width="85.887" height="85.887" fill="#071c33"/>
      </g>
    </g>
  </g>
</svg>
