<svg id="share_1" data-name="share 1" xmlns="http://www.w3.org/2000/svg" xmlns:xlink="http://www.w3.org/1999/xlink" width="78.857" height="69" viewBox="0 0 78.857 69">
  <defs>
    <clipPath id="clip-path">
      <path id="share" d="M1.28,24.31,28.387.9A3.7,3.7,0,0,1,34.5,3.7v12.33c24.74.283,44.357,5.242,44.357,28.687,0,9.463-6.1,18.838-12.835,23.739-2.1,1.53-5.1-.39-4.324-2.87,6.984-22.335-3.312-28.264-27.2-28.608v13.54a3.7,3.7,0,0,1-6.112,2.8L1.28,29.9A3.7,3.7,0,0,1,1.28,24.31Z" transform="translate(0 0)" fill="none"/>
    </clipPath>
  </defs>
  <g id="Groupe_747" data-name="Groupe 747" transform="translate(0 0)">
    <path id="share-2" data-name="share" d="M1.28,24.31,28.387.9A3.7,3.7,0,0,1,34.5,3.7v12.33c24.74.283,44.357,5.242,44.357,28.687,0,9.463-6.1,18.838-12.835,23.739-2.1,1.53-5.1-.39-4.324-2.87,6.984-22.335-3.312-28.264-27.2-28.608v13.54a3.7,3.7,0,0,1-6.112,2.8L1.28,29.9A3.7,3.7,0,0,1,1.28,24.31Z" transform="translate(0 0)" fill="none"/>
    <g id="Groupe_de_masques_747" data-name="Groupe de masques 747" transform="translate(0 0)" clip-path="url(#clip-path)">
      <g id="_color" data-name="🎨 color" transform="translate(-0.143 -4.5)">
        <rect id="Color" width="79" height="79" fill="#071c33"/>
      </g>
    </g>
  </g>
</svg>
