<svg id="history-2" data-name="history" xmlns="http://www.w3.org/2000/svg" xmlns:xlink="http://www.w3.org/1999/xlink" width="75.25" height="75.25" viewBox="0 0 75.25 75.25">
  <defs>
    <clipPath id="clip-path">
      <path id="history" d="M14.011,66.919a3.635,3.635,0,0,1-.277-5.4l1.707-1.71a3.649,3.649,0,0,1,4.838-.3A27.919,27.919,0,1,0,18.5,17.285l7.7,7.7a2.428,2.428,0,0,1-1.716,4.145H2.426A2.427,2.427,0,0,1,0,26.7V4.646A2.428,2.428,0,0,1,4.145,2.93l7.489,7.489a37.624,37.624,0,1,1,2.377,56.5ZM42.695,50.146,32.77,42.427V21.847a3.642,3.642,0,0,1,3.641-3.641h2.426a3.641,3.641,0,0,1,3.641,3.641V37.679l6.175,4.8a3.64,3.64,0,0,1,.638,5.109L47.8,49.508a3.64,3.64,0,0,1-5.109.638Z" transform="translate(0)" fill="none"/>
    </clipPath>
  </defs>
  <g id="Groupe_916" data-name="Groupe 916" transform="translate(0)">
    <path id="history-3" data-name="history" d="M14.011,66.919a3.635,3.635,0,0,1-.277-5.4l1.707-1.71a3.649,3.649,0,0,1,4.838-.3A27.919,27.919,0,1,0,18.5,17.285l7.7,7.7a2.428,2.428,0,0,1-1.716,4.145H2.426A2.427,2.427,0,0,1,0,26.7V4.646A2.428,2.428,0,0,1,4.145,2.93l7.489,7.489a37.624,37.624,0,1,1,2.377,56.5ZM42.695,50.146,32.77,42.427V21.847a3.642,3.642,0,0,1,3.641-3.641h2.426a3.641,3.641,0,0,1,3.641,3.641V37.679l6.175,4.8a3.64,3.64,0,0,1,.638,5.109L47.8,49.508a3.64,3.64,0,0,1-5.109.638Z" transform="translate(0)" fill="none"/>
    <g id="Groupe_de_masques_916" data-name="Groupe de masques 916" clip-path="url(#clip-path)">
      <g id="_color" data-name="🎨 color" transform="translate(-1.022 -1.022)">
        <rect id="Color" width="78.037" height="78.037" fill="#fff"/>
      </g>
    </g>
  </g>
</svg>
