<svg width="629" height="629" xmlns="http://www.w3.org/2000/svg" xmlns:xlink="http://www.w3.org/1999/xlink" overflow="hidden"><defs><clipPath id="clip0"><rect x="325" y="45" width="629" height="629"/></clipPath></defs><g clip-path="url(#clip0)" transform="translate(-325 -45)"><path d="M652.769 49.308 710.182 95.6667C710.182 95.6667 676.688 82.7326 639.505 82.7326 602.322 82.7326 568.828 95.6667 568.828 95.6667L626.241 49.308C633.358 43.5607 645.652 43.5607 652.769 49.308Z" fill="#E73439"/><path d="M495.891 84.2319 568.788 95.6767C568.788 95.6767 533.324 101.214 501.119 119.816 468.914 138.417 446.374 166.344 446.374 166.344L472.922 97.4558C476.21 88.9597 486.855 82.8126 495.891 84.2319Z" fill="#E73439"/><path d="M377.496 192.922 446.354 166.424C446.354 166.424 418.367 188.964 399.816 221.169 381.264 253.374 375.677 288.838 375.677 288.838L364.202 215.891C362.823 206.855 368.97 196.21 377.496 192.922Z" fill="#E73439"/><path d="M364.202 503.109 375.637 430.212C375.637 430.212 381.184 465.676 399.776 497.881 418.367 530.086 446.314 552.626 446.314 552.626L377.496 526.078C368.97 522.79 362.823 512.145 364.202 503.109Z" fill="#9F358B"/><path d="M472.922 621.504 446.374 552.656C446.374 552.656 468.914 580.593 501.139 599.224 533.364 617.856 568.808 623.363 568.808 623.363L495.911 634.808C486.855 636.207 476.21 630.03 472.922 621.504Z" fill="#9F358B"/><path d="M626.241 669.692 568.828 623.333C568.828 623.333 602.312 636.267 639.505 636.267 676.698 636.267 710.182 623.333 710.182 623.333L652.769 669.692C645.652 675.439 633.358 675.439 626.241 669.692Z" fill="#9F358B"/><path d="M901.504 526.078 832.656 552.626C832.656 552.626 860.593 530.086 879.195 497.881 897.796 465.676 903.333 430.212 903.333 430.212L914.768 503.109C916.187 512.145 910.04 522.79 901.504 526.078Z" fill="#EF7D17"/><path d="M949.692 372.759 903.343 430.172C903.343 430.172 916.267 396.688 916.267 359.495 916.267 322.302 903.343 288.828 903.343 288.828L949.692 346.241C955.439 353.338 955.439 365.652 949.692 372.759Z" fill="#EF7D17"/><path d="M914.768 215.891 903.333 288.788C903.333 288.788 897.786 253.324 879.195 221.119 860.603 188.914 832.656 166.424 832.656 166.424L901.504 192.972C910.04 196.21 916.187 206.855 914.768 215.891Z" fill="#EF7D17"/><path d="M457.159 160.867 520.89 154.08C520.89 154.08 492.383 166.704 469.543 189.543 446.704 212.383 434.08 240.88 434.08 240.88L440.877 177.159C441.716 169.263 449.263 161.706 457.159 160.867Z" fill="#EA4D48"/><path d="M382.274 278.652 434.07 240.91C434.07 240.91 415.688 266.098 407.332 297.294 398.976 328.489 402.334 359.485 402.334 359.485L376.346 300.902C373.098 293.645 375.857 283.37 382.274 278.652Z" fill="#EA4D48"/><path d="M440.877 541.841 434.08 478.12C434.08 478.12 446.704 506.627 469.543 529.457 492.383 552.286 520.89 564.92 520.89 564.92L457.159 558.133C449.263 557.244 441.716 549.737 440.877 541.841Z" fill="#A74A96"/><path d="M558.652 616.726 520.91 564.94C520.91 564.94 546.098 583.312 577.294 591.668 608.489 600.024 639.485 596.666 639.485 596.666L580.902 622.654C573.645 625.912 563.33 623.143 558.652 616.726Z" fill="#A74A96"/><path d="M698.098 622.694 639.515 596.706C639.515 596.706 670.501 600.024 701.716 591.708 732.932 583.392 758.09 564.98 758.09 564.98L720.348 616.766C715.67 623.143 705.365 625.912 698.098 622.694Z" fill="#A74A96"/><path d="M896.726 440.348 844.98 478.09C844.98 478.09 863.352 452.902 871.718 421.706 880.084 390.511 876.716 359.515 876.716 359.515L902.704 418.098C905.952 425.355 903.143 435.67 896.726 440.348Z" fill="#F28B31"/><path d="M902.694 300.902 876.706 359.485C876.706 359.485 880.024 328.499 871.708 297.294 863.392 266.088 844.98 240.91 844.98 240.91L896.766 278.652C903.143 283.37 905.952 293.645 902.694 300.902Z" fill="#F28B31"/><path d="M838.133 177.159 844.92 240.88C844.92 240.88 832.296 212.373 809.467 189.543 786.637 166.714 758.12 154.08 758.12 154.08L821.841 160.867C829.737 161.706 837.294 169.263 838.133 177.159Z" fill="#F28B31"/><path d="M580.902 96.3064 639.485 122.294C639.485 122.294 608.499 118.976 577.294 127.292 546.088 135.608 520.91 154.02 520.91 154.02L558.652 102.234C563.33 95.8566 573.645 93.0879 580.902 96.3064Z" fill="#EA4D48"/><path d="M531.185 151.881 586.16 160.507C586.16 160.507 559.412 164.695 535.123 178.718 510.834 192.742 493.832 213.822 493.832 213.822L513.823 161.846C516.342 155.429 524.378 150.811 531.185 151.881Z" fill="#EC6659"/><path d="M441.886 233.853 493.862 213.862C493.862 213.862 472.782 230.854 458.758 255.143 444.735 279.432 440.557 306.19 440.557 306.19L431.931 251.215C430.821 244.388 435.459 236.392 441.886 233.853Z" fill="#EC6659"/><path d="M405.543 349.5 440.527 306.19C440.527 306.19 430.771 331.448 430.771 359.495 430.771 387.542 440.527 412.81 440.527 412.81L405.543 369.5C401.185 364.133 401.185 354.867 405.543 349.5Z" fill="#EC6659"/><path d="M513.863 557.114 493.872 505.138C493.872 505.138 510.834 526.258 535.123 540.252 559.412 554.245 586.16 558.463 586.16 558.463L531.185 567.089C524.378 568.239 516.342 563.551 513.863 557.114Z" fill="#AF60A2"/><path d="M629.5 593.457 586.2 558.473C586.2 558.473 611.458 568.239 639.505 568.239 667.552 568.239 692.81 558.483 692.81 558.483L649.51 593.467C644.143 597.795 634.867 597.795 629.5 593.457Z" fill="#AF60A2"/><path d="M747.815 567.119 692.84 558.493C692.84 558.493 719.588 554.305 743.877 540.282 768.166 526.258 785.168 505.178 785.168 505.178L765.177 557.154C762.668 563.551 754.632 568.239 747.815 567.119Z" fill="#AF60A2"/><path d="M873.467 369.5 838.483 412.81C838.483 412.81 848.229 387.552 848.229 359.495 848.229 331.438 838.483 306.19 838.483 306.19L873.467 349.5C877.795 354.867 877.795 364.133 873.467 369.5Z" fill="#F49949"/><path d="M847.119 251.185 838.493 306.16C838.493 306.16 834.305 279.402 820.282 255.113 806.258 230.824 785.188 213.832 785.188 213.832L837.164 233.823C843.551 236.392 848.189 244.388 847.119 251.185Z" fill="#F49949"/><path d="M765.147 161.886 785.138 213.862C785.138 213.862 768.146 192.782 743.847 178.758 719.548 164.735 692.81 160.547 692.81 160.547L747.785 151.921C754.632 150.811 762.668 155.429 765.147 161.886Z" fill="#F49949"/><path d="M501.978 209.684 550.036 204.566C550.036 204.566 528.536 214.082 511.314 231.314 494.092 248.546 484.566 270.036 484.566 270.036L489.684 221.968C490.324 216.011 496.021 210.324 501.978 209.684Z" fill="#EF7C6C"/><path d="M445.495 298.523 484.556 270.056C484.556 270.056 470.693 289.047 464.396 312.577 458.099 336.106 460.588 359.485 460.588 359.485L440.997 315.305C438.568 309.828 440.657 302.052 445.495 298.523Z" fill="#EF7C6C"/><path d="M440.997 403.695 460.588 359.515C460.588 359.515 458.089 382.894 464.396 406.423 470.703 429.953 484.556 448.944 484.556 448.944L445.495 420.477C440.657 416.949 438.568 409.172 440.997 403.695Z" fill="#EF7C6C"/><path d="M329.308 346.241 375.667 288.828C375.667 288.828 362.733 322.312 362.733 359.495 362.733 396.678 375.667 430.172 375.667 430.172L329.308 372.759C323.571 365.652 323.571 353.338 329.308 346.241Z" fill="#E73439"/><path d="M376.316 418.098 402.304 359.515C402.304 359.515 398.986 390.501 407.302 421.706 415.618 452.912 434.04 478.09 434.04 478.09L382.244 440.348C375.857 435.67 373.098 425.355 376.316 418.098Z" fill="#EA4D48"/><path d="M431.891 467.815 440.517 412.84C440.517 412.84 444.695 439.598 458.718 463.887 472.742 488.176 493.822 505.168 493.822 505.168L441.846 485.177C435.459 482.658 430.821 474.632 431.891 467.815Z" fill="#EC6659"/><path d="M489.684 497.032 484.566 448.964C484.566 448.964 494.092 470.464 511.314 487.686 528.536 504.908 550.036 514.434 550.036 514.434L501.978 509.316C496.021 508.676 490.324 502.989 489.684 497.032Z" fill="#EF7C6C"/><path d="M578.523 553.506 550.056 514.444C550.056 514.444 569.047 528.307 592.587 534.614 616.126 540.921 639.495 538.413 639.495 538.413L595.305 558.003C589.828 560.432 582.102 558.353 578.523 553.506Z" fill="#B875AF"/><path d="M683.695 558.003 639.515 538.413C639.515 538.413 662.894 540.911 686.423 534.614 709.953 528.317 728.944 514.444 728.944 514.444L700.487 553.506C696.958 558.353 689.172 560.432 683.695 558.003Z" fill="#B875AF"/><path d="M777.012 509.316 728.954 514.434C728.954 514.434 750.454 504.918 767.676 487.686 784.898 470.454 794.424 448.964 794.424 448.964L789.296 497.032C788.686 502.989 783.009 508.676 777.012 509.316Z" fill="#B875AF"/><path d="M783.109 634.768 710.212 623.323C710.212 623.323 745.686 617.786 777.891 599.185 810.096 580.583 832.626 552.656 832.626 552.656L806.088 621.504C802.8 630.03 792.145 636.207 783.109 634.768Z" fill="#9F358B"/><path d="M821.841 558.133 758.12 564.92C758.12 564.92 786.627 552.296 809.467 529.457 832.306 506.617 844.92 478.12 844.92 478.12L838.133 541.841C837.294 549.737 829.737 557.244 821.841 558.133Z" fill="#A74A96"/><path d="M837.114 485.147 785.138 505.138C785.138 505.138 806.208 488.146 820.232 463.857 834.255 439.568 838.443 412.81 838.443 412.81L847.069 467.785C848.189 474.632 843.551 482.658 837.114 485.147Z" fill="#AF60A2"/><path d="M833.516 420.477 794.454 448.944C794.454 448.944 808.307 429.953 814.614 406.423 820.921 382.894 818.413 359.515 818.413 359.515L838.013 403.695C840.442 409.172 838.353 416.949 833.516 420.477Z" fill="#B875AF"/><path d="M837.984 315.355 818.383 359.535C818.383 359.535 820.891 336.156 814.584 312.627 808.277 289.097 794.424 270.106 794.424 270.106L833.486 298.573C838.353 302.052 840.442 309.828 837.984 315.355Z" fill="#F6A760"/><path d="M789.316 221.968 794.444 270.036C794.444 270.036 784.918 248.536 767.696 231.314 750.474 214.092 728.974 204.566 728.974 204.566L777.032 209.684C783.009 210.324 788.686 216.011 789.316 221.968Z" fill="#F6A760"/><path d="M700.487 165.494 728.944 204.556C728.944 204.556 709.953 190.693 686.423 184.386 662.894 178.079 639.515 180.588 639.515 180.588L683.695 160.997C689.172 158.568 696.958 160.647 700.487 165.494Z" fill="#F6A760"/><path d="M806.088 97.4558 832.626 166.304C832.626 166.304 810.096 138.437 777.891 119.816 745.686 101.194 710.212 95.6767 710.212 95.6767L783.109 84.2319C792.145 82.8126 802.8 88.9597 806.088 97.4558Z" fill="#EF7D17"/><path d="M720.348 102.274 758.09 154.06C758.09 154.06 732.912 135.688 701.716 127.332 670.521 118.976 639.515 122.334 639.515 122.334L698.098 96.3464C705.365 93.0879 715.67 95.8566 720.348 102.274Z" fill="#F28B31"/><path d="M649.51 125.543 692.81 160.527C692.81 160.527 667.552 150.771 639.505 150.771 611.458 150.771 586.2 160.527 586.2 160.527L629.5 125.543C634.867 121.205 644.143 121.205 649.51 125.543Z" fill="#F49949"/><path d="M595.305 160.997 639.495 180.588C639.495 180.588 616.116 178.089 592.587 184.386 569.057 190.683 550.056 204.556 550.056 204.556L578.523 165.494C582.102 160.647 589.828 158.568 595.305 160.997Z" fill="#F6A760"/><path d="M647.072 183.036 679.707 209.404C679.707 209.404 660.655 202.048 639.505 202.048 618.355 202.048 599.294 209.404 599.294 209.404L631.958 183.026C636.465 179.752 642.569 179.756 647.072 183.036Z" fill="#F8B578"/><path d="M557.803 202.907 599.274 209.414C599.274 209.414 579.103 212.573 560.781 223.148 542.46 233.723 529.636 249.616 529.636 249.616L544.739 210.454C546.997 205.372 552.272 202.324 557.803 202.907Z" fill="#F8B578"/><path d="M490.454 264.739 529.626 249.636C529.626 249.636 513.733 262.46 503.148 280.781 492.563 299.103 489.414 319.274 489.414 319.274L482.907 277.803C482.334 272.274 485.378 267.004 490.454 264.739Z" fill="#F29180"/><path d="M482.907 441.197 489.414 399.726C489.414 399.726 492.573 419.907 503.148 438.219 513.723 456.53 529.626 469.364 529.626 469.364L490.454 454.291C485.367 452.023 482.32 446.736 482.907 441.197Z" fill="#F29180"/><path d="M544.739 508.546 529.636 469.374C529.636 469.374 542.46 485.277 560.781 495.852 579.103 506.427 599.274 509.586 599.274 509.586L557.803 516.093C552.272 516.676 546.997 513.628 544.739 508.546Z" fill="#F29180"/><path d="M631.958 535.964 599.294 509.586C599.294 509.586 618.345 516.942 639.505 516.942 660.665 516.942 679.707 509.586 679.707 509.586L647.072 535.964C642.567 539.241 636.463 539.241 631.958 535.964Z" fill="#C289BC"/><path d="M788.546 454.291 749.384 469.394C749.384 469.394 765.277 456.57 775.852 438.249 786.427 419.927 789.586 399.756 789.586 399.756L796.093 441.227C796.676 446.758 793.628 452.033 788.546 454.291Z" fill="#C289BC"/><path d="M815.994 367.042 789.626 399.706C789.626 399.706 796.982 380.655 796.982 359.495 796.982 338.335 789.626 319.294 789.626 319.294L815.994 351.958C819.263 356.455 819.263 362.545 815.994 367.042Z" fill="#C289BC"/><path d="M796.093 277.803 789.586 319.274C789.586 319.274 786.437 299.093 775.852 280.781 765.267 262.47 749.384 249.636 749.384 249.636L788.546 264.739C793.628 266.997 796.676 272.272 796.093 277.803Z" fill="#F8B578"/><path d="M535.773 246.507 572.026 242.639C572.026 242.639 555.804 249.826 542.82 262.81 529.836 275.794 522.649 292.016 522.649 292.016L526.507 255.773C527.262 251.003 531.003 247.262 535.773 246.507Z" fill="#F8B578"/><path d="M493.143 313.506 522.609 292.036C522.609 292.036 512.154 306.36 507.396 324.111 502.638 341.863 504.527 359.495 504.527 359.495L489.754 326.17C488.025 321.66 489.393 316.55 493.143 313.506Z" fill="#F29180"/><path d="M526.507 463.227 522.649 426.984C522.649 426.984 529.826 443.196 542.82 456.19 555.814 469.184 572.026 476.361 572.026 476.361L535.773 472.493C531.003 471.738 527.262 467.997 526.507 463.227Z" fill="#F29180"/><path d="M593.506 505.828 572.036 476.371C572.036 476.371 586.37 486.816 604.091 491.574 621.813 496.332 639.475 494.443 639.475 494.443L606.17 509.266C601.65 510.987 596.536 509.598 593.506 505.828Z" fill="#F29180"/><path d="M672.84 509.266 639.515 494.483C639.515 494.483 657.147 496.372 674.889 491.614 692.631 486.856 706.964 476.411 706.964 476.411L685.494 505.868C682.459 509.625 677.348 510.997 672.84 509.266Z" fill="#C289BC"/><path d="M785.838 405.494 756.371 426.964C756.371 426.964 766.826 412.631 771.574 394.889 776.322 377.147 774.443 359.505 774.443 359.505L789.226 392.83C790.955 397.34 789.587 402.45 785.838 405.494Z" fill="#C289BC"/><path d="M789.226 326.17 774.443 359.495C774.443 359.495 776.332 341.853 771.574 324.111 766.816 306.37 756.371 292.036 756.371 292.036L785.838 313.506C789.587 316.55 790.955 321.66 789.226 326.17Z" fill="#C289BC"/><path d="M752.503 255.773 756.361 292.016C756.361 292.016 749.184 275.804 736.19 262.81 723.196 249.816 706.984 242.639 706.984 242.639L743.237 246.507C748.007 247.262 751.748 251.003 752.503 255.773Z" fill="#F8B578"/><path d="M606.17 209.774 639.495 224.557C639.495 224.557 621.863 222.668 604.111 227.426 586.36 232.184 572.036 242.629 572.036 242.629L593.506 213.172C596.546 209.416 601.658 208.044 606.17 209.774Z" fill="#F8B578"/><path d="M577.883 241.389 609.159 246.297C598.974 248.143 589.159 251.641 580.102 256.652 571.24 261.994 563.31 268.746 556.623 276.643L568.008 247.107C569.706 243.256 573.699 240.945 577.883 241.389Z" fill="#F8B578"/><path d="M527.127 288.028 556.663 276.633C548.766 283.323 542.013 291.257 536.672 300.122 531.663 309.173 528.165 318.981 526.317 329.159L521.409 297.883C520.974 293.706 523.284 289.724 527.127 288.028Z" fill="#F8B578"/><path d="M506.406 353.808 526.297 329.179C522.81 338.915 520.936 349.155 520.75 359.495 520.935 369.838 522.808 380.082 526.297 389.821L506.406 365.192C503.947 361.796 503.947 357.204 506.406 353.808Z" fill="#F29180"/><path d="M568.028 471.913 556.643 442.377C563.328 450.275 571.259 457.028 580.122 462.368 589.171 467.383 598.98 470.884 609.159 472.733L577.883 477.641C573.703 478.075 569.721 475.76 568.028 471.913Z" fill="#F29180"/><path d="M633.818 492.594 609.179 472.703C618.916 476.202 629.16 478.086 639.505 478.28 649.848 478.095 660.092 476.222 669.831 472.733L645.192 492.624C641.797 495.085 637.2 495.073 633.818 492.594Z" fill="#F29180"/><path d="M701.127 477.611 669.841 472.703C680.021 470.856 689.829 467.354 698.878 462.338 707.746 457 715.68 450.247 722.367 442.347L710.982 471.883C709.287 475.728 705.306 478.041 701.127 477.611Z" fill="#C289BC"/><path d="M772.594 365.192 752.703 389.821C756.198 380.083 758.075 369.839 758.26 359.495 758.075 349.154 756.197 338.913 752.703 329.179L772.594 353.808C775.063 357.201 775.063 361.799 772.594 365.192Z" fill="#C289BC"/><path d="M757.611 297.883 752.703 329.159C750.855 318.981 747.357 309.173 742.348 300.122 737.008 291.256 730.255 283.322 722.357 276.633L751.903 288.028C755.742 289.727 758.048 293.708 757.611 297.883Z" fill="#C289BC"/><path d="M710.982 247.087 722.367 276.623C715.678 268.725 707.744 261.972 698.878 256.632 689.827 251.622 680.019 248.124 669.841 246.277L701.127 241.37C705.304 240.937 709.284 243.246 710.982 247.087Z" fill="#F8B578"/><path d="M561.271 274.274 588.609 271.366C580.497 275.202 573.069 280.341 566.619 286.579 560.385 293.032 555.247 300.46 551.406 308.569L554.314 281.221C554.899 277.651 557.7 274.854 561.271 274.274Z" fill="#F8B578"/><path d="M529.126 324.811 551.346 308.618C546.229 316.002 542.357 324.173 539.881 332.807 537.71 341.526 536.977 350.54 537.712 359.495L526.577 334.347C525.275 330.951 526.303 327.104 529.126 324.811Z" fill="#F8B578"/><path d="M526.577 384.643 537.722 359.505C536.987 368.46 537.72 377.474 539.891 386.193 542.367 394.827 546.239 402.998 551.356 410.382L529.126 394.189C526.299 391.895 525.27 388.042 526.577 384.643Z" fill="#F29180"/><path d="M463.046 351.958 489.414 319.294C489.414 319.294 482.058 338.345 482.058 359.495 482.058 380.645 489.414 399.706 489.414 399.706L463.046 367.042C459.777 362.545 459.777 356.455 463.046 351.958Z" fill="#F29180"/><path d="M489.784 392.83 504.557 359.505C504.557 359.505 502.668 377.147 507.426 394.889 512.184 412.631 522.639 426.964 522.639 426.964L493.143 405.494C489.403 402.442 488.049 397.333 489.784 392.83Z" fill="#F29180"/><path d="M521.399 421.117 526.307 389.841C528.161 400.002 531.658 409.792 536.662 418.828 542.003 427.693 548.756 435.627 556.653 442.317L527.127 430.972C523.28 429.28 520.965 425.297 521.399 421.117Z" fill="#F29180"/><path d="M554.274 437.739 551.366 410.392C555.207 418.5 560.345 425.928 566.579 432.381 573.029 438.619 580.457 443.758 588.568 447.594L561.231 444.686C557.66 444.106 554.859 441.309 554.274 437.739Z" fill="#F29180"/><path d="M604.811 469.864 588.619 447.644C596.003 452.762 604.173 456.638 612.807 459.119 621.525 461.293 630.54 462.026 639.495 461.288L614.357 472.433C610.954 473.736 607.1 472.698 604.811 469.864Z" fill="#F29180"/><path d="M664.643 472.423 639.515 461.288C648.466 462.029 657.477 461.3 666.193 459.129 674.827 456.648 682.998 452.772 690.382 447.654L674.189 469.874C671.897 472.704 668.041 473.733 664.643 472.423Z" fill="#F29180"/><path d="M717.739 444.726 690.402 447.634C698.511 443.795 705.939 438.657 712.391 432.421 718.625 425.968 723.763 418.54 727.604 410.432L724.686 437.779C724.105 441.348 721.308 444.145 717.739 444.726Z" fill="#C289BC"/><path d="M721.197 516.093 679.726 509.586C679.726 509.586 699.907 506.427 718.229 495.852 736.55 485.277 749.364 469.374 749.364 469.374L734.271 508.546C732.392 513.404 726.335 516.902 721.197 516.093Z" fill="#C289BC"/><path d="M743.237 472.493 706.984 476.361C706.984 476.361 723.196 469.174 736.19 456.19 749.184 443.206 756.361 426.984 756.361 426.984L752.503 463.227C751.748 467.997 748.007 471.738 743.237 472.493Z" fill="#C289BC"/><path d="M751.923 430.972 722.377 442.367C730.275 435.678 737.028 427.744 742.368 418.878 747.372 409.842 750.87 400.052 752.723 389.891L757.631 421.167C758.045 425.325 755.743 429.279 751.923 430.972Z" fill="#C289BC"/><path d="M749.874 394.189 727.654 410.382C732.766 402.996 736.639 394.826 739.119 386.193 741.29 377.474 742.019 368.459 741.278 359.505L752.433 384.643C753.731 388.044 752.699 391.894 749.874 394.189Z" fill="#C289BC"/><path d="M752.433 334.347 741.278 359.485C742.019 350.531 741.29 341.516 739.119 332.797 736.639 324.164 732.766 315.994 727.654 308.608L749.874 324.801C752.702 327.094 753.735 330.946 752.433 334.347Z" fill="#C289BC"/><path d="M724.726 281.261 727.644 308.608C723.803 300.5 718.665 293.072 712.431 286.619 705.979 280.383 698.551 275.245 690.442 271.406L717.779 274.314C721.347 274.895 724.145 277.693 724.726 281.261Z" fill="#C289BC"/><path d="M674.189 249.136 690.382 271.356C682.998 266.239 674.827 262.363 666.193 259.881 657.477 257.71 648.466 256.981 639.515 257.722L664.643 246.577C668.043 245.265 671.901 246.3 674.189 249.136Z" fill="#F8B578"/><path d="M734.271 210.454 749.364 249.616C749.364 249.616 736.55 233.723 718.229 223.148 699.907 212.573 679.726 209.404 679.726 209.404L721.197 202.897C726.335 202.098 732.392 205.596 734.271 210.454Z" fill="#F8B578"/><path d="M685.494 213.172 706.964 242.629C706.964 242.629 692.641 232.184 674.889 227.426 657.137 222.668 639.515 224.557 639.515 224.557L672.84 209.774C677.348 208.043 682.459 209.415 685.494 213.172Z" fill="#F8B578"/><path d="M645.192 226.396 669.831 246.287C660.092 242.798 649.848 240.925 639.505 240.74 629.162 240.925 618.918 242.798 609.179 246.287L633.818 226.396C637.207 223.926 641.803 223.926 645.192 226.396Z" fill="#F8B578"/><path d="M614.357 246.577 639.495 257.722C630.541 256.981 621.526 257.71 612.807 259.881 604.172 262.369 596.001 266.251 588.618 271.376L604.811 249.156C607.094 246.312 610.952 245.27 614.357 246.577Z" fill="#F8B578"/></g></svg>