<svg width="270" height="144" xmlns="http://www.w3.org/2000/svg"><g fill="none" fill-rule="evenodd"><path d="M169.16 14.683C159.814 5.215 147.384 0 134.164 0c-13.221 0-25.65 5.215-34.998 14.683C90.329 23.632 85.973 34.48 82.3 44.29l-2.125 5.733c-2.792 7.3-5.95 14.483-11.09 19.69-5.234 5.3-12.19 8.22-19.592 8.22-15.227 0-27.624-12.507-27.705-27.91.08-15.404 12.478-27.911 27.705-27.911 7.401 0 14.358 2.92 19.592 8.219 3.806 3.856 6.524 8.796 8.813 14.063l.582-1.57c2.814-7.52 5.968-15.303 10.818-22.501a54.28 54.28 0 00-4.807-5.595C75.143 5.26 62.714.046 49.493.046 22.251.046.081 22.452 0 50.024.08 77.594 22.25 100 49.493 100c13.22 0 25.65-5.214 34.998-14.682 8.836-8.95 13.193-19.797 16.864-29.609l2.125-5.732c2.793-7.3 5.95-14.484 11.091-19.69 5.233-5.3 12.191-8.22 19.592-8.22 7.4 0 14.358 2.92 19.592 8.22 3.814 3.862 6.535 8.813 8.826 14.093l.568-1.51c2.821-7.537 5.983-15.337 10.851-22.55a54.352 54.352 0 00-4.84-5.637" fill="#FFF"/><path d="M220.498 0c-13.223 0-25.654 5.216-35.005 14.69-8.837 8.952-13.195 19.804-16.868 29.621l-2.125 5.643c-2.791 7.304-5.95 14.49-11.092 19.7-5.234 5.302-12.193 8.223-19.596 8.223-7.402 0-14.36-2.92-19.595-8.223-3.807-3.857-6.526-8.8-8.815-14.07l-.583 1.571c-2.815 7.524-5.968 15.31-10.819 22.512a54.284 54.284 0 004.807 5.598c9.35 9.472 21.783 14.689 35.005 14.689 13.223 0 25.655-5.217 35.005-14.69 8.837-8.952 13.195-19.806 16.868-29.621L189.81 50c2.792-7.305 5.95-14.49 11.092-19.7 5.235-5.303 12.193-8.223 19.596-8.223 15.23 0 27.629 12.512 27.71 27.923-.081 15.41-12.48 27.923-27.71 27.923-7.403 0-14.361-2.92-19.596-8.223-3.815-3.865-6.536-8.818-8.828-14.1l-.569 1.51c-2.821 7.541-5.983 15.345-10.852 22.56a54.213 54.213 0 004.84 5.64c9.35 9.473 21.782 14.69 35.005 14.69 27.246 0 49.421-22.416 49.502-50-.08-27.584-22.256-50-49.502-50" fill="#00FFAF"/><path d="M28.022 133.205l-2.836-6.698-2.838 6.698h5.674zM25.186 118l10.15 23h-4.004l-1.985-4.712h-8.324L19.036 141H15l10.186-23zm17.306.697v14.73c0 1.321.485 2.343 1.396 3.035.85.661 2.097 1.051 3.432 1.051 1.306 0 2.552-.39 3.432-1.051.911-.692 1.367-1.714 1.367-3.035v-14.73h3.555v14.73a7.838 7.838 0 01-.761 3.396 7.286 7.286 0 01-2.003 2.404C51.422 140.37 49.446 141 47.32 141s-4.1-.63-5.587-1.773a6.621 6.621 0 01-2.006-2.404c-.515-1.022-.759-2.165-.759-3.396v-14.73h3.524zM84 118v23h-3.652v-11.677l-7.242 10.254-7.274-10.254V141H62.21v-23l10.895 15.412L84 118z" fill="#FFF"/><path fill="#EA5153" d="M92 131h10v-3H92z"/><path d="M121.111 136.21c0-1.25-.405-2.244-1.217-3.044-.469-.48-1.061-.866-1.778-1.185-.314.127-.625.288-.97.415-1.278.544-2.558.866-3.526 1.09v6.408h1.499c1.967 0 3.557-.353 4.587-1.026.968-.64 1.405-1.474 1.405-2.659zm-7.49-13.393v7.21a13.58 13.58 0 002.371-.77c1.155-.48 2.061-1.026 2.684-1.665.656-.642.969-1.315.969-2.085 0-1.151-.407-1.6-.75-1.858-.873-.673-2.558-.832-3.776-.832h-1.499zM211.93 118l14.344 16.381v-15.26h3.601V144L215.5 127.617v15.294h-3.57V118zm-96.812 1.486c2.56 0 4.432.48 5.742 1.473a5.036 5.036 0 011.592 2.05c.311.736.468 1.57.468 2.498 0 1.282-.405 2.854-1.81 4.359.375.257.719.545 1.061.865a7.728 7.728 0 011.592 2.339c.405.961.592 2.019.592 3.14 0 1.184-.25 2.242-.749 3.204a6.63 6.63 0 01-2.121 2.274c-1.592 1.026-3.745 1.57-6.367 1.57H110v-23.772h5.119zm20.005 0v23.771h-3.59v-23.771h3.59zm17.945 0c1.55 0 3.066.321 4.49.93a11.982 11.982 0 013.651 2.53 12.41 12.41 0 012.446 3.78 12.49 12.49 0 01.898 4.645c0 1.601-.308 3.17-.898 4.613a11.683 11.683 0 01-2.446 3.78c-1.082 1.09-2.29 1.955-3.651 2.563-1.424.61-2.94.93-4.49.93-1.547 0-3.063-.32-4.457-.93a11.374 11.374 0 01-3.653-2.562 11.815 11.815 0 01-2.476-3.781 12.24 12.24 0 01-.899-4.613c0-1.6.311-3.17.899-4.646.588-1.408 1.424-2.658 2.476-3.778a11.28 11.28 0 013.653-2.531 11.13 11.13 0 014.457-.93zm37.846 0l5.598 8.136 5.598-8.136h4.077l-7.91 11.34v12.431h-3.53v-12.43l-7.941-11.341h4.108zm57.699 0c1.557 0 3.083.288 4.516.928.157.064.344.16.5.224v4.389a7.699 7.699 0 00-5.016-1.825 7.66 7.66 0 00-5.608 2.402 8.239 8.239 0 00-2.337 5.766c0 2.18.841 4.231 2.337 5.767 1.494 1.539 3.488 2.404 5.608 2.404 2.118 0 4.112-.865 5.607-2.404.28-.288.529-.576.779-.896v5.062c-.591.385-1.215.738-1.87 1.024-1.433.61-2.96.93-4.516.93-1.56 0-3.086-.32-4.488-.93a11.449 11.449 0 01-3.675-2.562 11.804 11.804 0 01-2.492-3.781 12.119 12.119 0 01-.905-4.614c0-1.6.312-3.17.905-4.644a12.157 12.157 0 012.492-3.78c1.059-1.09 2.274-1.955 3.675-2.532 1.402-.64 2.929-.928 4.488-.928zm-70.32-.35c1.144.474 2.165 1.266 3.036 2.372l-2.734 2.31c-1.143-1.455-2.315-1.455-2.946-1.33-.78.16-1.441.696-1.622 1.36-.122.444-.09 1.171.841 2.12l3.727 3.765c.542.57 1.203 1.234 1.683 1.708.963.919 1.623 1.961 1.953 3.07a5.84 5.84 0 01.06 3.29c-.63 2.278-2.583 4.08-5.019 4.587a6.51 6.51 0 01-1.353.126c-.9 0-1.802-.159-2.643-.505-1.414-.603-2.645-1.584-3.698-3.006l2.765-2.278c.631.886 1.382 1.519 2.194 1.835a3.28 3.28 0 002.045.19c1.141-.221 2.072-1.014 2.343-1.961.3-1.077-.39-2.025-1.022-2.658a217.57 217.57 0 01-2.735-2.784l-2.735-2.72c-.841-.855-1.412-1.804-1.712-2.815-.302-.98-.331-2.025-.06-2.975.27-1.013.84-1.898 1.652-2.625a5.689 5.689 0 012.675-1.33c1.082-.253 2.225-.158 3.306.255zm-25.225 4.065c-2.104 0-4.085.866-5.571 2.404a8.266 8.266 0 00-2.323 5.766c0 2.178.836 4.229 2.323 5.767 1.486 1.538 3.467 2.403 5.571 2.403 2.105 0 4.086-.865 5.572-2.403a8.267 8.267 0 002.323-5.767 8.266 8.266 0 00-2.323-5.766c-1.486-1.538-3.467-2.404-5.572-2.404z" fill="#00FFB0"/></g></svg>