<svg xmlns="http://www.w3.org/2000/svg" width="59" height="59.758" viewBox="0 0 59 59.758">
  <g id="Groupe_1012" data-name="Groupe 1012" transform="translate(-21 -139)">
    <g id="Ellipse_1" data-name="Ellipse 1" transform="translate(21 139)" fill="#f5f5f5" stroke="#707070" stroke-width="1">
      <circle cx="29.5" cy="29.5" r="29.5" stroke="none"/>
      <circle cx="29.5" cy="29.5" r="29" fill="none"/>
    </g>
    <path id="Tracé_6" data-name="Tracé 6" d="M173.27,185.8a29.217,29.217,0,0,1-3.091-.289,5.2,5.2,0,0,1-4.266-4.776,34.5,34.5,0,0,1,1.3-13.021,18.447,18.447,0,0,1,5.263-8.548,3.306,3.306,0,0,1,2.464-.986.648.648,0,0,0,.469-.259,5.833,5.833,0,0,1,4.441-2.441c3.755-.407,6.759,1.13,9.462,3.539a19.627,19.627,0,0,1,5.871,10.335,36.386,36.386,0,0,1,.872,11.013,5.5,5.5,0,0,1-5.609,5.349c-.409.019-.82,0-1.289,0,.449.658.833,1.247,1.252,1.811.1.128.307.175.472.244q3.322,1.395,6.646,2.782a1.7,1.7,0,0,1,1,1.017q1.88,4.98,3.78,9.953a.665.665,0,0,1-.187.809,27.852,27.852,0,0,1-11.869,7.44A28.426,28.426,0,0,1,178,211.057a29.109,29.109,0,0,1-17.563-8.606.851.851,0,0,1-.256-1.04c1.271-3.294,2.5-6.6,3.793-9.89a1.81,1.81,0,0,1,.872-.9c2.23-.983,4.492-1.9,6.731-2.859a2.108,2.108,0,0,0,.763-.614C172.693,186.715,172.981,186.23,173.27,185.8Zm16.471-14.839c-.058-.106-.122-.214-.177-.325a6.47,6.47,0,0,0-3.154-3.058,11.773,11.773,0,0,0-3.936-1.066,7.725,7.725,0,0,1-4.567-2.006c-.456-.414-.845-.9-1.292-1.385a9.7,9.7,0,0,0-2.672,3.681c-.549,1.392-.948,2.843-1.407,4.253.024.043,0-.01-.029-.051-.347-.42-.738-.82-1.336-.658-.621.168-.793.731-.848,1.284a5.569,5.569,0,0,0,.845,3.709,4.152,4.152,0,0,0,1.374,1.174c.257.151.413.24.485.538a11.681,11.681,0,0,0,2.029,4.5,1.915,1.915,0,0,1,.383,1.832,26.072,26.072,0,0,0-.756,3.906,17.661,17.661,0,0,0,1.4,7.783c1.7,4.572,4.127,8.871,5.164,13.823a3.881,3.881,0,0,0,.13-.37,38.851,38.851,0,0,1,2.289-6.823c1.136-2.759,2.314-5.5,3.334-8.308a14.184,14.184,0,0,0,.759-7.2c-.194-1.183-.523-2.343-.753-3.52a1.037,1.037,0,0,1,.152-.736,13.327,13.327,0,0,0,2.2-4.609c.113-.429.212-.779.726-.955a2.081,2.081,0,0,0,.882-.782,5.842,5.842,0,0,0,1-3.887,1.358,1.358,0,0,0-.785-1.338c-.593-.221-.992.188-1.373.568C189.8,170.947,189.781,170.949,189.741,170.965Z" transform="translate(-130.27 -12.507)" fill="#071c33"/>
  </g>
</svg>
