<svg id="chevron-down-2" data-name="chevron-down" xmlns="http://www.w3.org/2000/svg" xmlns:xlink="http://www.w3.org/1999/xlink" width="107.47" height="65.22" viewBox="0 0 107.47 65.22">
  <defs>
    <clipPath id="clip-path">
      <path id="chevron-down" d="M49.558,63.49,1.73,15.661a5.906,5.906,0,0,1,0-8.353L7.308,1.73a5.906,5.906,0,0,1,8.343-.01l38.083,37.9L91.818,1.72a5.906,5.906,0,0,1,8.343.01l5.578,5.578a5.906,5.906,0,0,1,0,8.353L57.912,63.49A5.907,5.907,0,0,1,49.558,63.49Z" transform="translate(0 0)" fill="none"/>
    </clipPath>
  </defs>
  <g id="Groupe_131" data-name="Groupe 131" transform="translate(0 0)">
    <path id="chevron-down-3" data-name="chevron-down" d="M49.558,63.49,1.73,15.661a5.906,5.906,0,0,1,0-8.353L7.308,1.73a5.906,5.906,0,0,1,8.343-.01l38.083,37.9L91.818,1.72a5.906,5.906,0,0,1,8.343.01l5.578,5.578a5.906,5.906,0,0,1,0,8.353L57.912,63.49A5.907,5.907,0,0,1,49.558,63.49Z" transform="translate(0 0)" fill="none"/>
    <g id="Groupe_de_masques_131" data-name="Groupe de masques 131" clip-path="url(#clip-path)">
      <g id="_color" data-name="🎨 color" transform="translate(-9.267 -30.392)">
        <rect id="Color" width="126.005" height="126.005" fill="#ea4f45"/>
      </g>
    </g>
  </g>
</svg>
