<svg id="chart-bar-2" data-name="chart-bar" xmlns="http://www.w3.org/2000/svg" xmlns:xlink="http://www.w3.org/1999/xlink" width="92" height="68.999" viewBox="0 0 92 68.999">
  <defs>
    <clipPath id="clip-path">
      <path id="chart-bar" d="M5.751,69A5.75,5.75,0,0,1,0,63.248V2.874A2.874,2.874,0,0,1,2.874,0H8.625A2.874,2.874,0,0,1,11.5,2.874V57.5H89.123A2.875,2.875,0,0,1,92,60.374v5.751A2.875,2.875,0,0,1,89.123,69Zm71.3-23a2.471,2.471,0,0,1-2.3-2.3V2.3a2.471,2.471,0,0,1,2.3-2.3h6.9a2.472,2.472,0,0,1,2.3,2.3V43.7a2.471,2.471,0,0,1-2.3,2.3ZM59.8,46a2.471,2.471,0,0,1-2.3-2.3V19.551a2.471,2.471,0,0,1,2.3-2.3h6.9a2.472,2.472,0,0,1,2.3,2.3V43.7A2.471,2.471,0,0,1,66.7,46Zm-17.25,0a2.471,2.471,0,0,1-2.3-2.3V8.049a2.471,2.471,0,0,1,2.3-2.3h6.9a2.471,2.471,0,0,1,2.3,2.3V43.7a2.471,2.471,0,0,1-2.3,2.3ZM25.3,46A2.471,2.471,0,0,1,23,43.7V31.05a2.474,2.474,0,0,1,2.3-2.3h6.9a2.475,2.475,0,0,1,2.3,2.3V43.7A2.471,2.471,0,0,1,32.2,46Z" fill="none"/>
    </clipPath>
  </defs>
  <g id="Groupe_623" data-name="Groupe 623">
    <path id="chart-bar-3" data-name="chart-bar" d="M5.751,69A5.75,5.75,0,0,1,0,63.248V2.874A2.874,2.874,0,0,1,2.874,0H8.625A2.874,2.874,0,0,1,11.5,2.874V57.5H89.123A2.875,2.875,0,0,1,92,60.374v5.751A2.875,2.875,0,0,1,89.123,69Zm71.3-23a2.471,2.471,0,0,1-2.3-2.3V2.3a2.471,2.471,0,0,1,2.3-2.3h6.9a2.472,2.472,0,0,1,2.3,2.3V43.7a2.471,2.471,0,0,1-2.3,2.3ZM59.8,46a2.471,2.471,0,0,1-2.3-2.3V19.551a2.471,2.471,0,0,1,2.3-2.3h6.9a2.472,2.472,0,0,1,2.3,2.3V43.7A2.471,2.471,0,0,1,66.7,46Zm-17.25,0a2.471,2.471,0,0,1-2.3-2.3V8.049a2.471,2.471,0,0,1,2.3-2.3h6.9a2.471,2.471,0,0,1,2.3,2.3V43.7a2.471,2.471,0,0,1-2.3,2.3ZM25.3,46A2.471,2.471,0,0,1,23,43.7V31.05a2.474,2.474,0,0,1,2.3-2.3h6.9a2.475,2.475,0,0,1,2.3,2.3V43.7A2.471,2.471,0,0,1,32.2,46Z" fill="none"/>
    <g id="Groupe_de_masques_623" data-name="Groupe de masques 623" clip-path="url(#clip-path)">
      <g id="_color" data-name="🎨 color" transform="translate(0 -11.5)">
        <rect id="Color" width="91.999" height="91.999" fill="#fff"/>
      </g>
    </g>
  </g>
</svg>
