<svg xmlns="http://www.w3.org/2000/svg" width="87.196" height="87.981" viewBox="0 0 87.196 87.981">
  <path id="settings" d="M76.7,43.99a33.517,33.517,0,0,0-.55-6.03L87.3,31.526l-11-19.062L65.147,18.912A32.993,32.993,0,0,0,54.7,12.878V0h-22V12.878a32.993,32.993,0,0,0-10.444,6.034L11.1,12.464l-11,19.062L11.262,37.96a33.359,33.359,0,0,0,0,12.061L.107,56.454l11,19.062,11.159-6.445A32.993,32.993,0,0,0,32.708,75.1V87.981h22V75.1a32.993,32.993,0,0,0,10.444-6.034l11.159,6.448,11-19.062L76.148,50.021a33.517,33.517,0,0,0,.55-6.03Zm-22,0a11,11,0,1,1-11-11A11,11,0,0,1,54.7,43.99Z" transform="translate(-0.107)" fill="#fff"/>
</svg>
