<svg id="share-2" data-name="share" xmlns="http://www.w3.org/2000/svg" xmlns:xlink="http://www.w3.org/1999/xlink" width="78.857" height="69" viewBox="0 0 78.857 69">
  <defs>
    <clipPath id="clip-path">
      <path id="share" d="M77.577,24.31,50.47.9a3.7,3.7,0,0,0-6.112,2.8v12.33C19.617,16.312,0,21.27,0,44.715c0,9.463,6.1,18.838,12.835,23.739,2.1,1.53,5.1-.39,4.324-2.87-6.984-22.335,3.312-28.264,27.2-28.608v13.54a3.7,3.7,0,0,0,6.112,2.8L77.577,29.9A3.7,3.7,0,0,0,77.577,24.31Z" fill="none"/>
    </clipPath>
  </defs>
  <g id="Groupe_747" data-name="Groupe 747" transform="translate(0 0)">
    <path id="share-3" data-name="share" d="M77.577,24.31,50.47.9a3.7,3.7,0,0,0-6.112,2.8v12.33C19.617,16.312,0,21.27,0,44.715c0,9.463,6.1,18.838,12.835,23.739,2.1,1.53,5.1-.39,4.324-2.87-6.984-22.335,3.312-28.264,27.2-28.608v13.54a3.7,3.7,0,0,0,6.112,2.8L77.577,29.9A3.7,3.7,0,0,0,77.577,24.31Z" fill="none"/>
    <g id="Groupe_de_masques_747" data-name="Groupe de masques 747" clip-path="url(#clip-path)">
      <g id="_color" data-name="🎨 color" transform="translate(0 -4.5)">
        <rect id="Color" width="79" height="79" fill="#071c33"/>
      </g>
    </g>
  </g>
</svg>
