<svg id="sign-out-alt-2" data-name="sign-out-alt" xmlns="http://www.w3.org/2000/svg" xmlns:xlink="http://www.w3.org/1999/xlink" width="96.852" height="73.809" viewBox="0 0 96.852 73.809">
  <defs>
    <clipPath id="clip-path">
      <path id="sign-out-alt" d="M55.347,69.187V50.738H29.212A4.6,4.6,0,0,1,24.6,46.126V27.677a4.6,4.6,0,0,1,4.612-4.612H55.347V4.616A4.621,4.621,0,0,1,63.225,1.35L95.51,33.636a4.648,4.648,0,0,1,0,6.535L63.225,72.456A4.51,4.51,0,0,1,60,73.809,4.608,4.608,0,0,1,55.347,69.187ZM18.449,73.8A18.453,18.453,0,0,1,0,55.351v-36.9A18.456,18.456,0,0,1,18.449,0H34.592A2.312,2.312,0,0,1,36.9,2.31V10A2.312,2.312,0,0,1,34.592,12.3H18.449A6.145,6.145,0,0,0,12.3,18.453v36.9A6.145,6.145,0,0,0,18.449,61.5H34.592A2.312,2.312,0,0,1,36.9,63.808v7.686A2.312,2.312,0,0,1,34.592,73.8Z" transform="translate(0 0)" fill="none"/>
    </clipPath>
  </defs>
  <g id="Groupe_341" data-name="Groupe 341" transform="translate(0 0)">
    <path id="sign-out-alt-3" data-name="sign-out-alt" d="M55.347,69.187V50.738H29.212A4.6,4.6,0,0,1,24.6,46.126V27.677a4.6,4.6,0,0,1,4.612-4.612H55.347V4.616A4.621,4.621,0,0,1,63.225,1.35L95.51,33.636a4.648,4.648,0,0,1,0,6.535L63.225,72.456A4.51,4.51,0,0,1,60,73.809,4.608,4.608,0,0,1,55.347,69.187ZM18.449,73.8A18.453,18.453,0,0,1,0,55.351v-36.9A18.456,18.456,0,0,1,18.449,0H34.592A2.312,2.312,0,0,1,36.9,2.31V10A2.312,2.312,0,0,1,34.592,12.3H18.449A6.145,6.145,0,0,0,12.3,18.453v36.9A6.145,6.145,0,0,0,18.449,61.5H34.592A2.312,2.312,0,0,1,36.9,63.808v7.686A2.312,2.312,0,0,1,34.592,73.8Z" transform="translate(0 0)" fill="none"/>
    <g id="Groupe_de_masques_341" data-name="Groupe de masques 341" clip-path="url(#clip-path)">
      <g id="_color" data-name="🎨 color" transform="translate(0 -12.295)">
        <rect id="Color" width="98.394" height="98.394" fill="#ea4f45"/>
      </g>
    </g>
  </g>
</svg>
