<svg id="times-2" data-name="times" xmlns="http://www.w3.org/2000/svg" xmlns:xlink="http://www.w3.org/1999/xlink" width="101.5" height="101.5" viewBox="0 0 101.5 101.5">
  <defs>
    <clipPath id="clip-path">
      <path id="times" d="M69.989,50.75,98.844,21.895a9.071,9.071,0,0,0,0-12.826L92.431,2.656a9.071,9.071,0,0,0-12.826,0L50.75,31.511,21.895,2.656a9.071,9.071,0,0,0-12.826,0L2.656,9.069a9.071,9.071,0,0,0,0,12.826L31.511,50.75,2.656,79.605a9.071,9.071,0,0,0,0,12.826l6.413,6.413a9.071,9.071,0,0,0,12.826,0L50.75,69.989,79.605,98.844a9.071,9.071,0,0,0,12.826,0l6.413-6.413a9.071,9.071,0,0,0,0-12.826Z" fill="none"/>
    </clipPath>
  </defs>
  <g id="Groupe_936" data-name="Groupe 936">
    <path id="times-3" data-name="times" d="M69.989,50.75,98.844,21.895a9.071,9.071,0,0,0,0-12.826L92.431,2.656a9.071,9.071,0,0,0-12.826,0L50.75,31.511,21.895,2.656a9.071,9.071,0,0,0-12.826,0L2.656,9.069a9.071,9.071,0,0,0,0,12.826L31.511,50.75,2.656,79.605a9.071,9.071,0,0,0,0,12.826l6.413,6.413a9.071,9.071,0,0,0,12.826,0L50.75,69.989,79.605,98.844a9.071,9.071,0,0,0,12.826,0l6.413-6.413a9.071,9.071,0,0,0,0-12.826Z" fill="none"/>
    <g id="Groupe_de_masques_936" data-name="Groupe de masques 936" clip-path="url(#clip-path)">
      <g id="_color" data-name="🎨 color" transform="translate(-22.75 -22.75)">
        <rect id="Color" width="148" height="148" fill="#ea4f45"/>
      </g>
    </g>
  </g>
</svg>
