<svg id="user-edit-2" data-name="user-edit" xmlns="http://www.w3.org/2000/svg" xmlns:xlink="http://www.w3.org/1999/xlink" width="95" height="76.005" viewBox="0 0 95 76.005">
  <defs>
    <clipPath id="clip-path">
      <path id="user-edit" d="M52.268,73.377l1.008-9.056L73.748,43.864,84.389,54.509,63.922,74.98,54.88,75.989a2.349,2.349,0,0,1-2.611-2.611ZM7.125,76A7.128,7.128,0,0,1,0,68.877V62.7A19.955,19.955,0,0,1,19.951,42.752h2.48a25.829,25.829,0,0,0,21.643,0h2.48a19.751,19.751,0,0,1,14.828,6.755L49.906,60.982l-1.172,1.172L48.556,63.8l-1.008,9.042A7.085,7.085,0,0,0,47.932,76ZM77.1,40.511l.606-.609,5.615-5.611a3.552,3.552,0,0,1,5.016,0l5.625,5.625a3.58,3.58,0,0,1,0,5.034l-6.206,6.2ZM14.251,19a19,19,0,1,1,19,19A19,19,0,0,1,14.251,19Z" fill="none"/>
    </clipPath>
  </defs>
  <g id="Groupe_573" data-name="Groupe 573">
    <path id="user-edit-3" data-name="user-edit" d="M52.268,73.377l1.008-9.056L73.748,43.864,84.389,54.509,63.922,74.98,54.88,75.989a2.349,2.349,0,0,1-2.611-2.611ZM7.125,76A7.128,7.128,0,0,1,0,68.877V62.7A19.955,19.955,0,0,1,19.951,42.752h2.48a25.829,25.829,0,0,0,21.643,0h2.48a19.751,19.751,0,0,1,14.828,6.755L49.906,60.982l-1.172,1.172L48.556,63.8l-1.008,9.042A7.085,7.085,0,0,0,47.932,76ZM77.1,40.511l.606-.609,5.615-5.611a3.552,3.552,0,0,1,5.016,0l5.625,5.625a3.58,3.58,0,0,1,0,5.034l-6.206,6.2ZM14.251,19a19,19,0,1,1,19,19A19,19,0,0,1,14.251,19Z" fill="none"/>
    <g id="Groupe_de_masques_573" data-name="Groupe de masques 573" clip-path="url(#clip-path)">
      <g id="_color" data-name="🎨 color" transform="translate(0 -9.426)">
        <rect id="Color" width="95.005" height="95.005" fill="#fff"/>
      </g>
    </g>
  </g>
</svg>
